<?xml version="1.0" standalone="no"?><!DOCTYPE svg PUBLIC "-//W3C//DTD SVG 1.1//EN" "http://www.w3.org/Graphics/SVG/1.1/DTD/svg11.dtd"><svg t="1766371599524" class="icon" viewBox="0 0 1024 1024" version="1.1" xmlns="http://www.w3.org/2000/svg" p-id="18174" xmlns:xlink="http://www.w3.org/1999/xlink" width="200" height="200"><path d="M857.226 316.442S860.57 79.066 659.969 75.719c-200.6-3.346-143.768 207.286-143.768 207.286l-83.331-11.66-83.834-11.745-26.743 96.957s120.361 13.376 130.386 23.406c10.033 10.031-96.958 120.36-86.924 310.929 0 0 66.872 80.241 247.404 96.958 0 0 230.692-13.375 250.753-73.555 0 0 26.75-250.747 6.683-297.553 0 0 117.026-10.032 127.052-46.809 0 0-36.777-100.3-53.496-100.3 0 0 6.686 46.809-26.743 46.809h-60.182z" fill="#BAD289" p-id="18175"></path><path d="M179.243 441.14s-3.55-252.045 209.446-255.594c212.999-3.55 152.648 220.096 152.648 220.096l88.487-12.383 89.006-12.468 28.404 102.949s-127.801 14.203-138.449 24.852c-10.649 10.648 102.946 127.797 92.305 330.139 0 0-71.008 85.204-262.697 102.952 0 0-244.944-14.198-266.25-78.099 0 0-28.404-266.247-7.098-315.948 0 0-124.25-10.641-134.899-49.693 0 0 39.046-106.499 56.8-106.499 0 0-7.099 49.697 28.398 49.697l63.899-0.001z" fill="#84C4D0" p-id="18176"></path><path d="M313.578 351.474c0 7.642-5.862 13.836-13.103 13.836-7.239 0-13.101-6.195-13.101-13.836 0-7.639 5.862-13.834 13.101-13.834 7.241 0 13.103 6.195 13.103 13.834zM442.579 347.68c0 7.641-5.862 13.836-13.102 13.836-7.241 0-13.103-6.195-13.103-13.836 0-7.64 5.862-13.834 13.103-13.834 7.24 0 13.102 6.194 13.102 13.834z" fill="#2C2D2D" p-id="18177"></path><path d="M316.603 401.406c-20.869 18.97 73.984 41.735 91.057 17.072" fill="#84C4D0" p-id="18178"></path><path d="M733.184 214.887c0 7.639 5.862 13.834 13.103 13.834 7.238 0 13.101-6.195 13.101-13.834 0-7.641-5.862-13.836-13.101-13.836-7.241-0.001-13.103 6.195-13.103 13.836zM604.184 211.092c0 7.639 5.861 13.834 13.102 13.834 7.241 0 13.104-6.195 13.104-13.834 0-7.641-5.862-13.836-13.104-13.836-7.241 0-13.102 6.195-13.102 13.836z" fill="#272828" p-id="18179"></path></svg>