<?xml version="1.0" standalone="no"?><!DOCTYPE svg PUBLIC "-//W3C//DTD SVG 1.1//EN" "http://www.w3.org/Graphics/SVG/1.1/DTD/svg11.dtd"><svg t="1766371628016" class="icon" viewBox="0 0 1024 1024" version="1.1" xmlns="http://www.w3.org/2000/svg" p-id="20193" xmlns:xlink="http://www.w3.org/1999/xlink" width="200" height="200"><path d="M364.998821 23.003617l295.998931 74.65973L869.866997 328.002515l-27.359901 271.999017L726.997513 764.000939l-333.998793 67.999755-115.999581 35.99987-55.749798-135.369511L36.00001 412.002211l116.07958-220.529203L364.998821 23.003617z" fill="#00A54F" p-id="20194"></path><path d="M392.99872 440.00211m-65.999762 0a65.999762 65.999762 0 1 0 131.999524 0 65.999762 65.999762 0 1 0-131.999524 0Z" fill="#212A3D" p-id="20195"></path><path d="M660.997752 440.00211m-65.999762 0a65.999762 65.999762 0 1 0 131.999523 0 65.999762 65.999762 0 1 0-131.999523 0Z" fill="#212A3D" p-id="20196"></path><path d="M238.999276 924.000361a55.999798 55.999798 0 0 1-55.999797-56.599795c0.349999-32.899881 0.689998-68.469753 0.869997-92.519666C68.159894 693.271195 0.00014 567.29165 0.00014 432.182138a399.468557 399.468557 0 0 1 37.869863-170.099385c24.069913-51.579814 58.409789-97.809647 102.079631-137.389504a474.148287 474.148287 0 0 1 149.46946-91.419669 512.11815 512.11815 0 0 1 363.168688 0 474.148287 474.148287 0 0 1 149.47946 91.419669c43.659842 39.579857 77.999718 85.79969 102.079631 137.389504a400.998551 400.998551 0 0 1 0 340.208771c-24.069913 51.579814-58.409789 97.809647-102.079631 137.389503a474.148287 474.148287 0 0 1-149.47946 91.41967A505.208175 505.208175 0 0 1 470.998438 864.370577c-13.109953 0-26.309905-0.499998-39.369858-1.489995L413.448646 869.00056c-17.429937 5.829979-40.669853 13.579951-63.919769 21.309923-46.449832 15.449944-92.899664 30.859888-92.899664 30.859889A55.999798 55.999798 0 0 1 238.999276 924.000361z m231.999162-811.997066c-197.999285 0-358.998703 143.629481-358.998703 320.178843 0 105.879617 58.699788 204.81926 156.999433 264.679044a55.999798 55.999798 0 0 1 11.379959 9.139967C295.99907 722.28109 295.99907 740.361025 295.99907 750.07099v14.399948c0 6.829975-0.1 15.429944-0.189999 25.679907 50.699817-16.859939 99.439641-33.10988 108.389609-36.219869a56.239797 56.239797 0 0 1 26.669903-3.539987c13.249952 1.319995 26.769903 1.999993 40.189855 1.999992 197.999285 0 358.998703-143.629481 358.998703-320.178843S668.997723 112.003295 470.998438 112.003295z m-68.229753 642.487679a53.999805 53.999805 0 0 0-19.059931 13.359952 56.149797 56.149797 0 0 1 19.059931-13.359952z" fill="#00A54F" p-id="20197"></path><path d="M854.857051 1024a43.929841 43.929841 0 0 1-12.839953-1.919993s-31.759885-9.689965-63.519771-19.40993c-15.899943-4.859982-31.789885-9.729965-43.709842-13.399952l-11.389959-3.509987c-8.999967 0.809997-18.149934 1.219996-27.219901 1.219996a303.608903 303.608903 0 0 1-98.419645-16.359941 43.999841 43.999841 0 0 1 28.459897-83.269699 216.529218 216.529218 0 0 0 95.849654 10.079963 44.20984 44.20984 0 0 1 20.779925 2.219992c5.949979 1.889993 35.479872 10.99996 67.569756 20.769925 0-5.909979-0.06-11.429959-0.08-16.109942v-10.529961c0-7.119974 0-18.999931 9.439966-30.999888a43.999841 43.999841 0 0 1 8.429969-8.199971c30.839889-22.859917 56.999794-53.849805 75.579727-89.619676 19.32993-37.179866 30.48989-79.629712 32.269884-122.759556a43.999841 43.999841 0 0 1 87.929682 3.629986c-2.309992 55.929798-16.869939 111.159598-42.109848 159.719423a353.888721 353.888721 0 0 1-83.499698 105.549619c0.09 17.569937 0.279999 44.059841 0.489998 68.529752a43.999841 43.999841 0 0 1-43.999841 44.36984zM743.917452 900.000448a44.089841 44.089841 0 0 1 17.619936 12.619954A42.779845 42.779845 0 0 0 743.917452 900.000448z" fill="#00A54F" p-id="20198"></path></svg>