<?xml version="1.0" standalone="no"?><!DOCTYPE svg PUBLIC "-//W3C//DTD SVG 1.1//EN" "http://www.w3.org/Graphics/SVG/1.1/DTD/svg11.dtd"><svg t="1766371840104" class="icon" viewBox="0 0 1024 1024" version="1.1" xmlns="http://www.w3.org/2000/svg" p-id="27719" xmlns:xlink="http://www.w3.org/1999/xlink" width="200" height="200"><path d="M999.052045 206.076997c-30.841197-57.323084-108.439998-84.380252-218.641963-76.276648-9.458268 0.693588-16.551292 8.931755-15.848672 18.390024 0.681848 9.460074 8.786355 16.545873 18.382798 15.861316 95.825361-7.037031 161.826427 13.636054 185.865402 58.312892 24.75785 46.002603 2.605472 117.50722-60.767545 196.189752-67.530933 83.823033-173.055693 166.760115-297.161032 233.538758-124.09089 66.785868-251.450133 109.189579-358.60049 119.358594-100.60823 9.593735-172.466865-11.33764-197.20846-57.333018-22.977821-42.670129-6.33983-105.941093 46.848817-178.117623 5.619149-7.630374 3.994454-18.395442-3.638629-24.020912-7.666499-5.637211-18.399958-4.009807-24.020009 3.637726-61.492742 83.47082-79.052807 159.75379-49.447967 214.790199 27.34255 50.787279 90.844711 77.711689 181.205355 77.71169 15.718625 0 32.241017-0.804671 49.508475-2.451943 111.60901-10.615152 243.583144-54.415974 371.635073-123.339502 128.050123-68.884695 237.30021-154.922153 307.627171-242.226674 73.537516-91.28001 96.352777-174.394102 64.261676-234.024631z" fill="#F1AE23" p-id="27720"></path><path d="M638.494516 710.028483c-110.002378 59.105823-219.699504 97.179123-313.715937 112.879686 60.486677 45.390295 135.395114 72.629891 216.848387 72.700333 200.255552 0.135466 362.738539-162.065751 362.878521-362.342977 0-6.775129-0.619533-13.357896-0.986195-20.034586-64.864953 68.9154-156.281333 138.391632-265.024776 196.797544zM221.134997 702.344826c12.768165 19.287715 21.787522 32.436089 34.552979 46.194062l2.417624-0.264611c0.099342 0.102051 0.167978 0.201393 0.250162 0.264611l0.018965-0.299832 14.106574-1.478391c17.226818-2.850214 4.430656-0.670107 17.226818-2.850214 96.600229-17.310807 210.64312-60.051378 324.250712-126.074118C716.121313 558.492992 802.18767 489.444834 864.216859 421.345845c5.734747-13.388602 1.91098-25.429764-6.390404-42.806498-32.712441-83.330838-95.308782-151.133607-174.144844-190.986034-111.882652-65.178332-244.404974-65.786125-362.041338 11.909308-8.972395 5.940656-17.477883 12.277777-25.744949 18.853319l0.018965-0.20049c-1.343827 1.004258-2.46549 2.178301-3.791254 3.220489a351.468633 351.468633 0 0 0-9.729202 8.217396c-46.398166 38.88068-79.874637 89.033073-99.818912 144.420792-12.210947 32.572459-22.341129 66.422818-22.341128 101.446316-4.514646 76.4952 15.128894 157.582714 57.667168 222.394384l3.234036 4.529999z m394.96601-269.627926c25.24282-13.11496 56.359466-3.286416 69.476232 21.941051 13.115863 25.259979 3.290932 56.35766-21.957307 69.485262-25.241917 13.117669-56.358563 3.291835-69.477135-21.948275-13.114056-25.262689-3.290932-56.358563 21.95821-69.478038z m-347.479597-1.976907c42.067754-21.842612 93.928831-5.469233 115.787699 36.597618 21.874221 42.103879 5.483682 93.941474-36.598522 115.78228-42.068658 21.876027-93.933346 5.503551-115.788602-36.565106-21.873318-42.115619-5.484585-93.94328 36.599425-115.814792z" fill="#F1AE23" p-id="27721"></path></svg>