<?xml version="1.0" standalone="no"?><!DOCTYPE svg PUBLIC "-//W3C//DTD SVG 1.1//EN" "http://www.w3.org/Graphics/SVG/1.1/DTD/svg11.dtd"><svg t="1766371931297" class="icon" viewBox="0 0 1442 1024" version="1.1" xmlns="http://www.w3.org/2000/svg" p-id="36338" xmlns:xlink="http://www.w3.org/1999/xlink" width="281.640625" height="200"><path d="M414.069 194.202329s-71.931695 251.694696 209.436481 332.50194c0 0-209.966365-139.889263-366.282018 138.03467 0 0 263.484605 150.751876 384.695473-90.345149 0 0-191.950323 197.38163 24.904527 390.789134 0 0 219.769211-233.148771 24.242174-400.062096 0 0 151.546701 229.174644 384.695472 105.976714 0 0-78.025356-230.366882-371.580854-152.341526 0 0 277.52652-55.107891 224.538163-312.366365 0 0-267.591203-5.298836-247.720569 250.89987 0.132471 0-22.652523-281.633118-266.928849-263.087192z" fill="#CCE187" p-id="36339"></path><path d="M810.024498 521.802846c-10.33273 0-20.532988-4.901423-27.024062-13.909444-10.597671-14.969211-7.020957-35.63467 7.815783-46.232341 57.624838-40.801035 91.934799-107.301423 91.934799-177.775938 0-120.1511-97.763519-217.782147-217.782147-217.782148C544.950242 66.102975 447.186723 163.734023 447.186723 283.885123c0 70.209573 34.17749 136.445019 91.404916 177.378525 14.83674 10.597671 18.280983 31.263131 7.683312 46.232342-10.597671 14.83674-31.263131 18.280983-46.232342 7.683311-36.032083-25.699353-65.970505-60.009314-86.503492-99.088227-21.327814-40.403622-32.58784-86.10608-32.58784-132.07348 0-75.905821 29.541009-147.175162 83.191721-200.825873s124.920052-83.191721 200.825873-83.191721S812.144033 29.408538 865.794744 83.05925s83.191721 124.920052 83.191721 200.825873c0 91.934799-44.775162 178.570763-119.886158 231.824062-5.828719 4.106598-12.452264 6.093661-19.075809 6.093661z" fill="#2A9B74" p-id="36340"></path><path d="M427.316089 741.307115c-75.905821 0-147.175162-29.541009-200.825873-83.19172s-83.191721-124.920052-83.19172-200.825874 29.541009-147.175162 83.19172-200.825873S351.410268 173.271928 427.316089 173.271928c61.863907 0 120.548512 19.473221 169.960156 56.4326 47.689521 35.63467 83.721604 86.503493 101.340233 143.201035 5.431307 17.486158-4.371539 36.032083-21.725227 41.463389-17.486158 5.431307-36.032083-4.371539-41.463389-21.725226C606.814149 300.973868 523.225016 239.507374 427.316089 239.507374c-120.1511 0-217.782147 97.763519-217.782147 217.782147S307.297461 675.071669 427.316089 675.071669c47.954463 0 93.52445-15.366624 131.676068-44.245278 14.571798-11.127555 35.369728-8.213195 46.364812 6.358603 11.127555 14.571798 8.213195 35.369728-6.358603 46.364812-49.676585 37.754204-109.023545 57.757309-171.682277 57.757309z" fill="#2A9B74" p-id="36341"></path><path d="M904.608716 741.307115c-61.334023 0-119.886158-19.34075-169.032859-55.770246-14.704269-10.862613-17.7511-31.660543-6.888487-46.364812 10.862613-14.704269 31.660543-17.7511 46.364813-6.888486 37.754204 27.951358 82.529366 42.788098 129.556533 42.788098 120.1511 0 217.782147-97.763519 217.782147-217.782148s-97.763519-217.782147-217.782147-217.782147c-95.643984 0-179.233118 61.334023-207.846831 152.473997-5.431307 17.486158-24.109702 27.156533-41.463389 21.725227-17.486158-5.563777-27.289004-24.109702-21.725227-41.595861 18.016041-57.227426 52.988357-106.639069 101.340233-142.671151 49.279172-36.826908 107.963777-56.300129 169.695214-56.300129 75.905821 0 147.175162 29.541009 200.825873 83.19172s83.191721 124.920052 83.19172 200.825873-29.541009 147.175162-83.19172 200.825874c-53.650712 53.783182-124.920052 83.324191-200.825873 83.324191z" fill="#2A9B74" p-id="36342"></path><path d="M518.588534 1024c-75.905821 0-147.175162-29.541009-200.825873-83.191721s-83.191721-124.920052-83.19172-200.825873 29.541009-147.175162 83.19172-200.825873 124.920052-83.191721 200.825873-83.191721c18.280983 0 33.117723 14.83674 33.117724 33.117724s-14.83674 33.117723-33.117724 33.117723c-120.1511 0-217.782147 97.763519-217.782147 217.782147 0 120.1511 97.763519 217.782147 217.782147 217.782148s217.782147-97.763519 217.782148-217.782148c0-24.374644-3.974127-48.351876-11.92238-71.26934-5.96119-17.221216 3.179301-36.164554 20.400517-42.125744s36.164554 3.179301 42.125744 20.400518c10.33273 29.805951 15.499094 61.069082 15.499094 92.862095 0 75.905821-29.541009 147.175162-83.19172 200.825874-53.518241 53.783182-124.787581 83.324191-200.693403 83.324191z" fill="#2A9B74" p-id="36343"></path><path d="M815.853218 1024c-75.905821 0-147.175162-29.541009-200.825874-83.191721S531.835624 815.888228 531.835624 739.982406c0-32.190427 5.298836-63.718499 15.896507-93.789392 6.093661-17.221216 24.904528-26.361708 42.258215-20.268046 17.221216 6.093661 26.361708 24.904528 20.268046 42.258214-8.080724 23.049935-12.187322 47.292109-12.187322 71.931695 0 120.1511 97.763519 217.782147 217.782148 217.782148s217.782147-97.763519 217.782147-217.782148c0-120.1511-97.763519-217.782147-217.782147-217.782147-18.280983 0-33.117723-14.83674-33.117724-33.117724s14.83674-33.117723 33.117724-33.117723c75.905821 0 147.175162 29.541009 200.825873 83.191721s83.191721 124.920052 83.19172 200.825873-29.408538 147.042691-83.059249 200.693402-125.052523 83.191721-200.958344 83.191721zM665.498754 490.804657c-10.597671 0-19.738163-7.815783-21.062872-18.678396-0.132471-0.927296-11.92238-94.716688-43.980336-146.380336-6.226132-9.935317-3.179301-23.049935 6.888487-29.143596 9.935317-6.226132 23.049935-3.179301 29.143596 6.888486 37.09185 59.611902 49.544114 159.362484 50.073997 163.601552 1.45718 11.657439-6.888486 22.122639-18.413454 23.579819-0.927296 0.132471-1.854592 0.132471-2.649418 0.132471z" fill="#2A9B74" p-id="36344"></path><path d="M667.75076 490.804657c-0.794825 0-1.722122 0-2.649418-0.132471-11.657439-1.45718-19.870634-11.92238-18.413454-23.579819 0.529884-4.239069 12.982147-103.989651 50.073997-163.601552 6.226132-9.935317 19.208279-12.982147 29.143596-6.888486s12.982147 19.208279 6.888487 29.143596c-32.057956 51.663648-43.847865 145.45304-43.980337 146.380336-1.45718 10.862613-10.597671 18.678396-21.062871 18.678396zM601.647784 538.361708c-1.324709 0-2.649418-0.132471-4.106598-0.397413-0.927296-0.132471-93.789392-18.016041-152.87141-3.444243-11.392497 2.781889-22.784994-4.106598-25.699353-15.499095-2.781889-11.392497 4.106598-22.784994 15.499095-25.699353 68.22251-16.823803 166.913325 2.119534 171.019922 2.91436 11.524968 2.252005 18.943338 13.37956 16.691333 24.904528-1.722122 10.200259-10.597671 17.221216-20.532989 17.221216z" fill="#2A9B74" p-id="36345"></path><path d="M602.310139 536.242173c-3.046831 0-6.093661-0.662354-8.87555-1.987063-3.841656-1.854592-94.849159-44.51022-140.154205-98.160931-7.550841-9.008021-6.358603-22.25511 2.516947-29.805951 9.008021-7.550841 22.25511-6.358603 29.805951 2.516947 39.343855 46.629754 124.787581 86.635964 125.582406 87.033376 10.597671 4.901423 15.234153 17.486158 10.33273 28.2163-3.576714 7.683312-11.260026 12.187322-19.208279 12.187322zM576.080902 762.369987h-1.589651c-11.657439-0.794825-20.400517-10.995084-19.605692-22.652523 5.033894-70.077102 53.650712-158.037775 55.637775-161.746959 5.696248-10.200259 18.545925-13.909444 28.878655-8.213196 10.200259 5.696248 13.909444 18.545925 8.213195 28.878655-0.662354 1.192238-46.099871 83.721604-50.47141 144.260802-0.794825 10.995084-10.067788 19.473221-21.062872 19.473221z" fill="#2A9B74" p-id="36346"></path><path d="M498.188017 705.937387c-8.345666 0-16.29392-5.033894-19.605692-13.247089-4.371539-10.862613 0.794825-23.182406 11.657438-27.686417 56.4326-23.049935 120.945925-91.934799 121.60828-92.597154 7.948254-8.610608 21.327814-9.008021 29.938422-1.059767s9.008021 21.327814 1.059767 29.938422c-2.91436 3.046831-71.666753 76.435705-136.709961 102.929883-2.516947 1.192238-5.298836 1.722122-7.948254 1.722122z" fill="#2A9B74" p-id="36347"></path><path d="M833.471846 705.937387c-2.649418 0-5.431307-0.529884-7.948253-1.589651-65.043208-26.494179-133.795602-99.883053-136.709962-102.929883-7.948254-8.610608-7.550841-21.990168 1.059768-29.938422s21.990168-7.550841 29.938421 1.059767c0.662354 0.662354 65.30815 69.67969 121.60828 92.597154 10.862613 4.371539 16.028978 16.823803 11.657438 27.686416-3.311772 8.080724-11.260026 13.114618-19.605692 13.114619z" fill="#2A9B74" p-id="36348"></path><path d="M755.711432 762.369987c-10.995084 0-20.268047-8.478137-21.062872-19.605692-4.371539-60.80414-50.073997-143.465977-50.47141-144.260802-5.696248-10.200259-1.987063-23.182406 8.213196-28.878655s23.182406-1.987063 28.878654 8.213196c2.119534 3.709185 50.603881 91.802329 55.637775 161.74696 0.794825 11.657439-7.948254 21.857697-19.605692 22.652522-0.662354 0.132471-1.059767 0.132471-1.589651 0.132471z" fill="#2A9B74" p-id="36349"></path><path d="M729.084783 535.579819c-7.948254 0-15.631565-4.50401-19.20828-12.319793-4.901423-10.597671-0.397413-23.182406 10.33273-28.2163 0.794825-0.397413 86.503493-40.668564 125.582406-87.033377 7.550841-9.008021 20.930401-10.067788 29.805951-2.516947 9.008021 7.550841 10.067788 20.930401 2.516947 29.805951-45.305045 53.650712-136.312549 96.306339-140.154204 98.160932-2.91436 1.589651-5.96119 2.119534-8.87555 2.119534z" fill="#2A9B74" p-id="36350"></path><path d="M729.614666 537.699353c-9.935317 0-18.810867-7.020957-20.79793-17.088745-2.252005-11.524968 5.298836-22.652523 16.691333-24.904528 4.106598-0.794825 102.929884-19.738163 171.019922-2.914359 11.392497 2.781889 18.280983 14.306856 15.499095 25.699353-2.781889 11.392497-14.306856 18.280983-25.699354 15.499094-59.214489-14.571798-151.944114 3.179301-152.87141 3.444243-1.059767 0.132471-2.384476 0.264942-3.841656 0.264942z" fill="#2A9B74" p-id="36351"></path></svg>