<?xml version="1.0" standalone="no"?><!DOCTYPE svg PUBLIC "-//W3C//DTD SVG 1.1//EN" "http://www.w3.org/Graphics/SVG/1.1/DTD/svg11.dtd"><svg t="1766371767744" class="icon" viewBox="0 0 1024 1024" version="1.1" xmlns="http://www.w3.org/2000/svg" p-id="24664" xmlns:xlink="http://www.w3.org/1999/xlink" width="200" height="200"><path d="M892.6 892.6c-26.8 76.3-99.7 131.4-184.8 131.4H316.2c-85.2 0-158-55.1-184.8-131.4C55.1 865.8 0 792.9 0 707.8V316.2c0-85.2 55.1-158 131.4-184.8C158.2 55.1 231.1 0 316.2 0h391.5c85.2 0 158 55.1 184.8 131.4 76.3 26.8 131.4 99.7 131.4 184.8v391.5c0.1 85.2-55 158.1-131.3 184.9z m-51.3 8.2c3.9-7.2 7.5-14.7 10.3-22.6l6.9-19.7 19.7-6.9c44.2-15.5 78-50.4 93.3-93.1H841.3v142.3z m-32.2 40.4V758.5H714v164.4h2.4v0.3c15.5 2.1 27.6 15.5 27.6 31.6 0 9.4-4.4 17.7-11 23.5 28.8-4.9 54.9-18.1 76.1-37.1z m0-189.4V614.7c-1.3 0.1-2.3 0.4-3.6 0.6H714v136.5h95.1zM309.7 980c0.3 0 0.6-0.1 0.9-0.1h401.6c13.8 0 25.1-11.3 25.1-25.1s-11.3-25.1-25.1-25.1H604.8v-0.1H203.4c26.9 29.8 64.8 48.6 106.3 50.4zM172.4 878.2c5.8 16.5 14.4 31.4 25 44.6h484.5V758.5H421.4c-13.8 0-25.1 11.3-25.1 25.1s11.3 25.1 25.1 25.1h107.5v0.2H563c17.5 0 31.9 14.3 31.9 31.8s-14.3 31.8-31.9 31.8H197.1v-0.1h-12.6c-4.7 0-8.9 1.7-12.7 4l0.6 1.8z m374.1-262.9H342.1v250.6h221c13.8 0 25.1-11.3 25.1-25.1s-11.3-25.1-25.1-25.1H455.6v-0.2h-34.1c-17.5 0-31.9-14.3-31.9-31.8s14.3-31.8 31.9-31.8H682V615.3H546.5zM310 865.9V615.3h-91.5c-1.3-0.1-2.3-0.4-3.6-0.6v251.1H292v0.1h18z m670.5-549.7c0-62.1-38.5-117.5-95.4-140.7H708.2c-20.4 0-20.4-30.8 0-30.8H762c7.4 0 7.4-11.2 0-11.2h-94.5c-5.2-1-4.2-9.8-0.1-9.8H762c19.9 0 20.3 29.4 1.4 30.8v0.1h-33.8c-7.4 0-7.4 11.2 0 11.2H859l-0.5-0.2-6.9-19.7C830.2 85 772.5 43.5 707.8 43.5H316.2c-64.7 0-122.5 41.5-143.8 102.3l-6.9 19.7-19.7 6.9C85 193.8 43.4 251.5 43.4 316.2v391.5c0 64.7 41.5 122.5 102.3 143.8l19.7 6.9 4.1 11.6c4-2.2 8.4-3.7 13.2-4V608.5c-95.6-25.9-97.4-107.8-94.9-136.8v-0.6c-0.4-5.3-0.7-10.4-0.6-14.9h0.1c0.2-13 1.8-21.6 1.8-21.6s37.7 72.3 117.1 76.3c45.9 2.3 82.2-10.3 104.8-21.4v-18.7h-5.7c-92.6-9.3-94-78.5-91.9-101-0.3-3.1-0.3-6-0.3-8.7 0-0.6-0.1-1.5-0.1-2.1h0.1c0.1-9.1 1.3-15.2 1.3-15.2s26.5 50.9 82.4 53.7c20.2 1 37.3-2.2 51.5-6.6v-49.8h-2.2c-74.4-7.5-75.4-63-73.8-81.1-0.2-2.5-0.2-4.7-0.2-6.8 0-0.6-0.1-1.4-0.1-1.9h0.1c0.1-7.4 1-12.2 1-12.2s21.3 40.9 66.2 43.1c25.9 1.3 46.4-5.8 59.2-12.1V254c-48.6-5.6-49.7-42.1-48.6-54.4 1.4 16.1 10.2 40.4 49.9 44.4h224.4c39.8-4 48.5-28.3 49.9-44.4 1.1 12.4-0.1 48.9-48.6 54.4v16.1c12.8 6.3 33.3 13.4 59.2 12.1 44.9-2.2 66.2-43.1 66.2-43.1s0.9 4.9 1 12.2h0.1c0 0.6-0.1 1.4-0.1 2 0 2.1 0 4.3-0.2 6.7 1.7 18.1 0.6 73.7-73.8 81.1h-2.2v49.8c14.2 4.4 31.3 7.6 51.5 6.6 55.9-2.8 82.4-53.7 82.4-53.7s1.2 6.1 1.3 15.2h0.1c0 0.8-0.1 1.8-0.1 2.7 0 2.6-0.1 5.2-0.3 8.2 2.1 22.5 0.8 91.7-91.9 101H713v18.7c22.6 11.1 59 23.7 104.8 21.4 79.4-3.9 117.1-76.3 117.1-76.3s1.7 8.6 1.8 21.6h0.1c0.1 4.6-0.2 9.9-0.6 15.4v0.2c2.5 28.9 0.7 110.8-94.8 136.8v143.2h132.5c4.3-14.1 6.8-28.8 6.8-44V316.2zM715.2 154.5h-6.9c-7.4 0-7.4 11.2 0 11.2h6.9c-1.3-3.6-1.3-7.6 0-11.2zM846 727.1c13-22.1 42.2-12.6 51.7-4.3 12.2-9.8 28.9-21.9 45.4-14.5 2.2 1 4.8 2.9 6.1 5.1-17.9-0.7-35.1 10.6-50 25.5-14.5-14.1-32.2-21.1-53.2-11.8zM198.3 252.4c-23.9-16.2-50.6-21.6-77.8-3.3 12.8-34.3 56.2-28.3 71.7-18.9 14.8-16.8 35.2-38.1 60.2-31.7 3.3 0.9 7.5 2.8 9.8 5.6-25.3 3.4-46.8 23.6-63.9 48.3z" fill="#A98175" p-id="24665"></path></svg>