<?xml version="1.0" standalone="no"?><!DOCTYPE svg PUBLIC "-//W3C//DTD SVG 1.1//EN" "http://www.w3.org/Graphics/SVG/1.1/DTD/svg11.dtd"><svg t="1766371504266" class="icon" viewBox="0 0 1024 1024" version="1.1" xmlns="http://www.w3.org/2000/svg" p-id="10241" xmlns:xlink="http://www.w3.org/1999/xlink" width="200" height="200"><path d="M303.53 886.7l-129.96-15.12-8.65-1.98-47.25-16.78 73.54 9.25 59.23-89.96-63.8-36.66 58.82-40.32-28.7-42.71 30.69-4.75 9.92-0.43 84.13 5.61 44.97-47.17 8.05-3.65 64.7-14.89 19.08-0.11 215.86 46.81 91.43-4.85 60.69-28.15 44.28 8.27-16.51 9.98 8.45 78.08 0.57 32.35-39.4 49.38-11.05 6.59-88.51 23.65-9.16 37.15-12.11 8.89-108.45 19.8-17.02-0.52-164.53-54.13-114.58 63.62-13.61 2.81-1.12-0.06z" fill="#DBCDAF" p-id="10242"></path><path d="M474.09 627.05l206.22 44.72 10.58 2.29 10.82-0.57 78.29-4.15 15.56-0.82 14.08-6.52 27.25-12.63 5.44 50.34 0.29 16.21-25.88 32.44-60.1 16.06-45.92 12.27-10.34 42-89 16.25-6.9-0.22-142.2-46.77-33.57-11L397.82 794l-93.77 52-1.4 0.29-49.24-5.73 7.36-11.17 46.6-70.79-45.52-26.16 39.07-26.78L290 689.51l29.92 2 37.7 2.52 26-27.28 25.83-27.1 54.43-12.53 10.16-0.06m8.42-80l-28 0.17-73 16.8-18.85 8.52-37.36 39.19-67.49-4.5-14.36 0.62-106.06 16.38L113 645l1.17 9.26 57.16 2.53L190 684.57l-23.33 16-47 1.46 10.84 47.36 63 36.19-22.17 33.68L71 806.63l-7 68.18 17.74 7.72 71.88 25.52 13.09 3L300 926.56l7.58 0.44 24.85-5.13 104.54-58 153.29 50.43 27.14 0.83 121.8-22.23 31.3-23 7-28.24 71-19 22.14-13.21 47.85-60 4.95-12.3-0.75-42.52-5.91-54.59 43.22-26.1-2.25-24.13-29.57-14.37L841 559.15l-65.33 30.3-78.24 4.15L482.51 547z" fill="#C7BEA5" p-id="10243"></path><path d="M512 311.1m-70 0a70 70 0 1 0 140 0 70 70 0 1 0-140 0Z" fill="#FFB266" p-id="10244"></path><path d="M512 97c-116 0-210 94-210 210v1.27c0 1 0 2.11 0.06 3.18a208.86 208.86 0 0 0 24.08 93.36c46.12 119.7 95.84 248.34 152 316.12a43.93 43.93 0 0 0 67.6 0C602 653 652.36 523.91 698.29 404a209 209 0 0 0 23.65-92.51c0-1.09 0.06-2.17 0.06-3.22V307c0-116-94-210-210-210z m130 212.42c-0.23 5.23-2.21 22.77-16.69 61.47a130.19 130.19 0 0 1-226.24 0.56c-14.75-39.2-16.78-56.8-17-62v-2.41a130 130 0 0 1 260 0c-0.07 0.77-0.07 1.57-0.07 2.38z" fill="#FFB266" p-id="10245"></path></svg>